<svg id="Layer_1" data-name="Layer 1" xmlns="http://www.w3.org/2000/svg" width="455.01" height="480.68" viewBox="0 0 455.01 480.68"><defs><style>.cls-1{fill:#0f123f;}</style></defs><path class="cls-1" d="M227.5,25.68A227.78,227.78,0,1,0,388.29,92.39,227.54,227.54,0,0,0,227.5,25.68ZM253.24,354l-18-12.5c-5-3.47-4.87-9,.26-12.41l66.18-43.44c8.33-5.47,2.63-15-9-15.05l-220-.26c-7.13,0-12.91-3.93-12.91-8.76V244.15c0-4.85,5.81-8.77,13-8.77l213.94.26c11.45,0,17.28-9.32,9.3-14.88l-57.55-40.07c-5-3.46-4.87-9,.24-12.38l18.49-12.22c5.12-3.38,13.32-3.31,18.3.16L410.6,250.31c5,3.46,4.87,9-.25,12.39L271.53,354.21C266.41,357.58,258.22,357.51,253.24,354Z"/></svg>