<svg id="Layer_1" data-name="Layer 1" xmlns="http://www.w3.org/2000/svg" width="700" height="700" viewBox="0 0 700 700"><defs><style>.cls-1{fill:#0f123f;}</style></defs><path class="cls-1" d="M345.62,43.75a227.76,227.76,0,1,0,160.79,66.71A227.53,227.53,0,0,0,345.62,43.75Zm25.74,328.37-18-12.51c-5-3.47-4.88-9,.26-12.4l66.17-43.45c8.34-5.47,2.63-15-9-15.05l-220-.25c-7.13,0-12.91-3.93-12.91-8.77V262.22c0-4.85,5.8-8.77,13-8.76l214,.25c11.45,0,17.28-9.31,9.29-14.87l-57.54-40.07c-5-3.47-4.87-9,.24-12.38l18.49-12.23c5.12-3.38,13.31-3.31,18.3.17l135.12,94c5,3.47,4.87,9-.25,12.39L389.64,372.28C384.53,375.66,376.34,375.58,371.36,372.12Z"/></svg>