<?xml version="1.0" encoding="utf-8"?>
<!-- Generator: Adobe Illustrator 26.0.3, SVG Export Plug-In . SVG Version: 6.00 Build 0)  -->
<svg version="1.1" id="Layer_1" xmlns="http://www.w3.org/2000/svg" xmlns:xlink="http://www.w3.org/1999/xlink" x="0px" y="0px"
	 viewBox="0 0 429.6 293.3" style="enable-background:new 0 0 429.6 293.3;" xml:space="preserve">
<style type="text/css">
	.st0{fill:#0F123F;}
	.st1{fill:#F5862F;}
</style>
<path class="st0" d="M367.5,123.8c-0.4,0-0.9,0-1.3,0c-13.7-23.1-37.5-37.8-64.2-39.9c-17.8-46.8-62.5-77.9-113-77.9
	c-50.5,0-95.2,31-113,77.9C33.5,87.2,0,122.8,0,165.9c0,43.8,35.3,80.4,79,82c0.5,0.1,1,0.1,1.5,0.1h50.5c4.6,0,8.4-3.8,8.4-8.4
	c0-4.6-3.8-8.4-8.4-8.4H81.7c-0.3-0.1-0.7-0.1-1-0.1c-35.2-0.8-63.9-30.1-63.9-65.3c0-35.9,29.2-65.2,65.1-65.4c3.6,0,6.8-2.4,8-5.8
	c14-43,53.8-71.8,99-71.8s85,28.9,99,71.8c1.1,3.4,4.3,5.8,8,5.8c24.6,0.1,46.8,13.8,58,35.9c1.6,3.1,5,4.9,8.4,4.5
	c1.7-0.2,3.4-0.3,5.1-0.3c25,0,45.3,20.3,45.3,45.3c0,24.2-18.9,44-43.1,45.2c-0.4,0-0.7,0.1-1.1,0.1l-70,0c-4.6,0-8.4,3.8-8.4,8.4
	c0,4.6,3.8,8.4,8.4,8.4h71.5c0.7,0,1.3-0.1,1.9-0.2c32.4-2.4,57.5-29.3,57.5-61.9C429.6,151.7,401.7,123.8,367.5,123.8L367.5,123.8z
	"/>
<path class="st1" d="M202.4,184.9c-0.2-0.4-0.4-0.8-0.7-1.1c-0.1-0.2-0.2-0.4-0.4-0.6c0,0-0.1,0-0.1-0.1c-0.3-0.4-0.8-0.6-1.2-0.9
	c-0.2-0.1-0.4-0.3-0.6-0.4c-0.3-0.1-0.5-0.1-0.8-0.2c-0.4-0.1-0.9-0.3-1.3-0.3c0,0-0.1,0-0.1,0c-0.3,0-0.5,0.1-0.8,0.2
	c-0.4,0.1-0.9,0.1-1.3,0.3c-0.4,0.2-0.8,0.4-1.1,0.7c-0.2,0.1-0.5,0.2-0.7,0.4l-31.9,29.8c-2.3,2.1-2.4,5.7-0.3,7.9
	c1.1,1.2,2.6,1.8,4.1,1.8c1.4,0,2.7-0.5,3.8-1.5l22.4-21v87.9c0,3.1,2.5,5.6,5.6,5.6s5.6-2.5,5.6-5.6V186.9c0-0.3-0.1-0.6-0.2-0.8
	C202.6,185.7,202.6,185.3,202.4,184.9L202.4,184.9z"/>
<path class="st1" d="M260.4,253.8l-22.4,21v-87.9c0-3.1-2.5-5.6-5.6-5.6s-5.6,2.5-5.6,5.6v100.8c0,0.3,0.1,0.5,0.2,0.8
	c0.1,0.4,0.1,0.8,0.2,1.2c0.2,0.4,0.4,0.8,0.7,1.1c0.1,0.2,0.2,0.4,0.4,0.6c0,0,0.1,0,0.1,0.1c0.5,0.5,1.1,1,1.8,1.3c0,0,0,0,0,0
	c0.7,0.3,1.4,0.4,2.2,0.4c0.7,0,1.4-0.2,2.1-0.4c0.3-0.1,0.6-0.4,0.9-0.6c0.3-0.2,0.6-0.3,0.8-0.5l31.9-29.8
	c2.3-2.1,2.4-5.7,0.3-7.9C266.2,251.8,262.7,251.7,260.4,253.8L260.4,253.8z"/>
</svg>
