<?xml version="1.0" encoding="utf-8"?>
<!-- Generator: Adobe Illustrator 26.0.3, SVG Export Plug-In . SVG Version: 6.00 Build 0)  -->
<svg version="1.1" id="Layer_1" xmlns="http://www.w3.org/2000/svg" xmlns:xlink="http://www.w3.org/1999/xlink" x="0px" y="0px"
	 viewBox="0 0 290.1 553.4" style="enable-background:new 0 0 290.1 553.4;" xml:space="preserve">
<style type="text/css">
	.st0{fill:#0F123F;stroke:#000000;stroke-width:4;stroke-miterlimit:10;}
</style>
<path class="st0" d="M274.7,10.1L83.8,9.5c-2.3,0-4.2,1.9-4.2,4.2l-0.7,258.7c0,1.1,0.4,2.2,1.2,3s1.9,1.2,3,1.2l64.2,0.2l-0.1,19.4
	c0,6,2.3,11.7,6.5,15.9c2.2,2.2,4.7,3.9,7.5,5v17.1c0,1.1,0.4,2.2,1.2,3s1.9,1.2,3,1.2h1.4l-0.2,73.9c-15.1-15.6-36-24.7-58-24.8
	c-21.7-0.1-42.1,8.3-57.5,23.6c-0.2,0.2-0.4,0.5-0.7,0.7l0.7-241.2h1.4c1.2,0,2.2-0.5,3-1.2c0.8-0.8,1.2-1.8,1.2-3v-17.1
	c2.8-1.1,5.3-2.8,7.5-4.9c4.3-4.2,6.6-9.9,6.6-15.9L71,107c0-2.2-1.7-4-3.9-4.2l0.1-44.6c0-2.3-1.9-4.2-4.2-4.2l-46.2-0.1
	c-2.2,0-4.2,2-4.2,4.2l-0.1,44.6c-2.2,0.1-4,1.9-4,4.1l-0.1,21.6c0,9.4,5.8,17.5,14,20.9v17.1c0,2.3,1.9,4.2,4.2,4.2H28l-0.4,117.9
	l-0.5,179.9c-0.1,21.7,8.3,42.1,23.6,57.5s35.6,23.9,57.3,23.9c22.4,0.1,42.7-9,57.4-23.6c14.7-14.7,23.9-34.9,24-57.3l0.4-130.5
	h1.4c1.2,0,2.2-0.5,3-1.2c0.8-0.8,1.2-1.8,1.2-3v-17.1c2.8-1.1,5.3-2.8,7.5-4.9c4.3-4.2,6.6-9.9,6.6-15.9l0.1-19.4l64.2,0.2
	c1.2,0,2.2-0.5,3-1.2c0.8-0.8,1.2-1.8,1.2-3l0.7-258.7c0-1.1-0.4-2.2-1.2-3C276.9,10.5,275.8,10.1,274.7,10.1L274.7,10.1z
	 M20.9,62.3l37.9,0.1l-0.1,40.3l-37.9-0.1L20.9,62.3z M16.8,128.5l0.1-17.4l45.8,0.1l-0.1,17.4c0,7.5-6.6,14.1-14.1,14.1L31,142.6
	C23.1,142.6,16.8,136.3,16.8,128.5L16.8,128.5z M30.8,151l17.5,0.1v11.3l-17.6-0.1L30.8,151z M36.1,288.6l0.3-117.9h6.3L42,422.1
	c-2.4,3.4-4.5,6.9-6.3,10.6L36.1,288.6z M181.1,468.9c-0.1,40.1-32.9,72.7-73,72.6c-19.4-0.1-37.7-7.7-51.4-21.5
	c-13.7-13.7-21.2-32-21.2-51.5c0.1-19.4,7.7-37.7,21.5-51.4c13.8-13.7,32.1-21.2,51.5-21.2c22.8,0.1,44.3,11,58,29.2v10.7
	c-11.5-20.2-33.1-33.9-58-34c-17.9-0.1-34.7,6.9-47.3,19.4s-19.7,29.4-19.7,47.2c-0.1,17.9,6.9,34.7,19.4,47.3
	c12.6,12.7,29.4,19.7,47.2,19.7c17.9,0.1,34.7-6.9,47.3-19.5c12.7-12.6,19.7-29.4,19.7-47.2c0-3.2-0.3-6.3-0.7-9.4
	c0.2-0.5,0.3-1.1,0.3-1.6l0.3-119.4h3.1h3.2L181.1,468.9z M166.8,468.9c0,15.6-6.2,30.3-17.2,41.3c-11.1,11-25.8,17.1-41.4,17
	c-15.6,0-30.3-6.2-41.3-17.2c-11-11.1-17.1-25.8-17-41.4c0-15.6,6.2-30.3,17.2-41.3c11.1-11,25.8-17.1,41.4-17
	C140.7,410.4,166.9,436.7,166.8,468.9L166.8,468.9z M187.1,330.1h-8.8h-8.8v-11.3l17.5,0.1L187.1,330.1z M201.3,296.4
	c0,7.5-6.6,14.1-14.1,14.1l-17.6-0.1c-3.8,0-7.3-1.5-10-4.2s-4.1-6.2-4.1-10l0.1-17.4l45.7,0.1L201.3,296.4z M269.8,268.7
	l-182.5-0.5L88,17.9l182.6,0.5L269.8,268.7z"/>
</svg>
