<svg id="Layer_1" data-name="Layer 1" xmlns="http://www.w3.org/2000/svg" xmlns:xlink="http://www.w3.org/1999/xlink" width="366" height="421" viewBox="0 0 366 421"><defs><style>.cls-1{fill:#e6e6e6;}.cls-2{fill:#fff;}.cls-3{opacity:0.6;}.cls-4{fill:url(#linear-gradient);}</style><linearGradient id="linear-gradient" x1="183" y1="418.63" x2="183" y2="11.89" gradientTransform="translate(366 421) rotate(180)" gradientUnits="userSpaceOnUse"><stop offset="0" stop-color="#ff931e"/><stop offset="1" stop-color="#0f123f"/></linearGradient></defs><polygon class="cls-1" points="6.88 307.43 6.88 104.06 183 2.38 359.12 104.06 359.12 307.43 183 409.11 6.88 307.43"/><path class="cls-2" d="M183,4.75l174.06,100.5v201L183,406.73,8.94,306.24v-201L183,4.75M183,0,4.82,102.87V308.61L183,411.49,361.18,308.61V102.87L183,0Z"/><g class="cls-3"><polygon class="cls-4" points="6.88 307.43 6.88 104.06 183 2.38 359.12 104.06 359.12 307.43 183 409.11 6.88 307.43"/><path class="cls-2" d="M183,4.75l174.06,100.5v201L183,406.73,8.94,306.24v-201L183,4.75M183,0,4.82,102.87V308.61L183,411.49,361.18,308.61V102.87L183,0Z"/></g></svg>