<?xml version="1.0" encoding="utf-8"?>
<!-- Generator: Adobe Illustrator 26.0.3, SVG Export Plug-In . SVG Version: 6.00 Build 0)  -->
<svg version="1.1" id="Layer_1" xmlns="http://www.w3.org/2000/svg" xmlns:xlink="http://www.w3.org/1999/xlink" x="0px" y="0px"
	 viewBox="0 0 230.1 478" style="enable-background:new 0 0 230.1 478;" xml:space="preserve">
<style type="text/css">
	.st0{fill:#0F123F;}
</style>
<path class="st0" d="M205.7,136.1h-11.4V19c0-5.4-4.4-9.9-9.9-9.9H43.8c-5.4,0-9.9,4.4-9.9,9.9v116.5H22.5c-5.4,0-9.9,4.4-9.9,9.9
	v309.6c0,5.4,4.4,9.9,9.9,9.9h182.7c5.4,0,9.9-4.4,9.9-9.9l0-309.1C215.6,140,211.2,136.1,205.7,136.1L205.7,136.1z M32.4,211.6h163
	v149.1h-163V211.6z M53.6,28.9h121v106.7l-121,0V28.9z M43.8,155.8h152.1v36.5h-163v-36.5H43.8z M32.4,445.2v-64.7h163v64.7H32.4z
	 M168.2,68.4c0,5.4-4.4,9.9-9.9,9.9l-13.8,0c-5.4,0-9.9-4.4-9.9-9.9c0-5.4,4.4-9.9,9.9-9.9h13.8C163.7,58.5,168.2,63,168.2,68.4z
	 M93.6,68.4c0,5.4-4.4,9.9-9.9,9.9H69.9c-5.4,0-9.9-4.4-9.9-9.9c0-5.4,4.4-9.9,9.9-9.9h13.8C89.2,58.5,93.6,63,93.6,68.4z"/>
</svg>
